<svg xmlns="http://www.w3.org/2000/svg" width="960" height="540" viewBox="0 0 960 540">
<style>
svg { background: #fff; }
text { font-family: Arial, sans-serif; fill: #000; }
.axis { stroke: #333; stroke-width: 1.5; }
.grid { stroke: #ddd; stroke-width: 1; }
.series { fill: none; stroke-width: 2.5; }
.point { stroke: white; stroke-width: 1.5; }
</style>
<rect x="0" y="0" width="960" height="540" fill="#fff" />
<text x="480.0" y="32" text-anchor="middle" font-size="20" font-weight="bold">YCSB average commit: rw=50, ops=100, batch=1000, threads=12, partitions=12, keys=40000</text>
<line class="grid" x1="80" y1="470.00" x2="930" y2="470.00" />
<text x="70" y="474.00" text-anchor="end" font-size="12">0</text>
<line class="grid" x1="80" y1="390.00" x2="930" y2="390.00" />
<text x="70" y="394.00" text-anchor="end" font-size="12">2,781</text>
<line class="grid" x1="80" y1="310.00" x2="930" y2="310.00" />
<text x="70" y="314.00" text-anchor="end" font-size="12">5,562</text>
<line class="grid" x1="80" y1="230.00" x2="930" y2="230.00" />
<text x="70" y="234.00" text-anchor="end" font-size="12">8,343</text>
<line class="grid" x1="80" y1="150.00" x2="930" y2="150.00" />
<text x="70" y="154.00" text-anchor="end" font-size="12">11,123</text>
<line class="grid" x1="80" y1="70.00" x2="930" y2="70.00" />
<text x="70" y="74.00" text-anchor="end" font-size="12">13,904</text>
<line class="grid" x1="80.00" y1="70" x2="80.00" y2="470" />
<text x="80.00" y="492" text-anchor="middle" font-size="12">0.0</text>
<line class="grid" x1="268.89" y1="70" x2="268.89" y2="470" />
<text x="268.89" y="492" text-anchor="middle" font-size="12">0.2</text>
<line class="grid" x1="457.78" y1="70" x2="457.78" y2="470" />
<text x="457.78" y="492" text-anchor="middle" font-size="12">0.4</text>
<line class="grid" x1="646.67" y1="70" x2="646.67" y2="470" />
<text x="646.67" y="492" text-anchor="middle" font-size="12">0.6</text>
<line class="grid" x1="835.56" y1="70" x2="835.56" y2="470" />
<text x="835.56" y="492" text-anchor="middle" font-size="12">0.8</text>
<line class="grid" x1="930.00" y1="70" x2="930.00" y2="470" />
<text x="930.00" y="492" text-anchor="middle" font-size="12">0.9</text>
<line class="axis" x1="80" y1="470" x2="930" y2="470" />
<line class="axis" x1="80" y1="70" x2="80" y2="470" />
<text x="480.0" y="522" text-anchor="middle" font-size="14">zipf</text>
<text x="24" y="270.0" text-anchor="middle" font-size="14" transform="rotate(-90 24 270.0)">average commit</text>
<path class="series" stroke="#1f77b4" d="M 80.00 345.49 L 268.89 224.17 L 457.78 435.12 L 646.67 431.48 L 835.56 469.23 L 930.00 467.51" />
<circle class="point" cx="80.00" cy="345.49" r="4" fill="#1f77b4" />
<circle class="point" cx="268.89" cy="224.17" r="4" fill="#1f77b4" />
<circle class="point" cx="457.78" cy="435.12" r="4" fill="#1f77b4" />
<circle class="point" cx="646.67" cy="431.48" r="4" fill="#1f77b4" />
<circle class="point" cx="835.56" cy="469.23" r="4" fill="#1f77b4" />
<circle class="point" cx="930.00" cy="467.51" r="4" fill="#1f77b4" />
<line x1="750" y1="80" x2="772" y2="80" stroke="#1f77b4" stroke-width="3" />
<text x="780" y="84" font-size="13">aria_abort_lock_fix</text>
<path class="series" stroke="#d62728" d="M 80.00 386.00 L 268.89 152.31 L 457.78 251.65 L 646.67 415.36 L 835.56 465.70 L 930.00 467.38" />
<circle class="point" cx="80.00" cy="386.00" r="4" fill="#d62728" />
<circle class="point" cx="268.89" cy="152.31" r="4" fill="#d62728" />
<circle class="point" cx="457.78" cy="251.65" r="4" fill="#d62728" />
<circle class="point" cx="646.67" cy="415.36" r="4" fill="#d62728" />
<circle class="point" cx="835.56" cy="465.70" r="4" fill="#d62728" />
<circle class="point" cx="930.00" cy="467.38" r="4" fill="#d62728" />
<line x1="750" y1="104" x2="772" y2="104" stroke="#d62728" stroke-width="3" />
<text x="780" y="108" font-size="13">ariaer_abort_lock_fix</text>
<path class="series" stroke="#2ca02c" d="M 80.00 118.13 L 268.89 194.39 L 457.78 249.20 L 646.67 414.62 L 835.56 465.54 L 930.00 467.38" />
<circle class="point" cx="80.00" cy="118.13" r="4" fill="#2ca02c" />
<circle class="point" cx="268.89" cy="194.39" r="4" fill="#2ca02c" />
<circle class="point" cx="457.78" cy="249.20" r="4" fill="#2ca02c" />
<circle class="point" cx="646.67" cy="414.62" r="4" fill="#2ca02c" />
<circle class="point" cx="835.56" cy="465.54" r="4" fill="#2ca02c" />
<circle class="point" cx="930.00" cy="467.38" r="4" fill="#2ca02c" />
<line x1="750" y1="128" x2="772" y2="128" stroke="#2ca02c" stroke-width="3" />
<text x="780" y="132" font-size="13">ariaer_cache_fix_abort_lock_fix</text>
<path class="series" stroke="#9467bd" d="M 80.00 106.29 L 268.89 147.94 L 457.78 247.72 L 646.67 414.50 L 835.56 465.70 L 930.00 467.34" />
<circle class="point" cx="80.00" cy="106.29" r="4" fill="#9467bd" />
<circle class="point" cx="268.89" cy="147.94" r="4" fill="#9467bd" />
<circle class="point" cx="457.78" cy="247.72" r="4" fill="#9467bd" />
<circle class="point" cx="646.67" cy="414.50" r="4" fill="#9467bd" />
<circle class="point" cx="835.56" cy="465.70" r="4" fill="#9467bd" />
<circle class="point" cx="930.00" cy="467.34" r="4" fill="#9467bd" />
<line x1="750" y1="152" x2="772" y2="152" stroke="#9467bd" stroke-width="3" />
<text x="780" y="156" font-size="13">ariaer_cache_fix_v2_abort_lock_fix</text>
</svg>