<svg xmlns="http://www.w3.org/2000/svg" width="960" height="540" viewBox="0 0 960 540">
<style>
svg { background: #fff; }
text { font-family: Arial, sans-serif; fill: #000; }
.axis { stroke: #333; stroke-width: 1.5; }
.grid { stroke: #ddd; stroke-width: 1; }
.series { fill: none; stroke-width: 2.5; }
.point { stroke: white; stroke-width: 1.5; }
</style>
<rect x="0" y="0" width="960" height="540" fill="#fff" />
<text x="480.0" y="32" text-anchor="middle" font-size="20" font-weight="bold">YCSB throughput: rw=95, ops=100, zipf=0.9, threads=12, partitions=12, keys=40000</text>
<line class="grid" x1="80" y1="470.00" x2="930" y2="470.00" />
<text x="70" y="474.00" text-anchor="end" font-size="12">0</text>
<line class="grid" x1="80" y1="390.00" x2="930" y2="390.00" />
<text x="70" y="394.00" text-anchor="end" font-size="12">4,285</text>
<line class="grid" x1="80" y1="310.00" x2="930" y2="310.00" />
<text x="70" y="314.00" text-anchor="end" font-size="12">8,570</text>
<line class="grid" x1="80" y1="230.00" x2="930" y2="230.00" />
<text x="70" y="234.00" text-anchor="end" font-size="12">12,856</text>
<line class="grid" x1="80" y1="150.00" x2="930" y2="150.00" />
<text x="70" y="154.00" text-anchor="end" font-size="12">17,141</text>
<line class="grid" x1="80" y1="70.00" x2="930" y2="70.00" />
<text x="70" y="74.00" text-anchor="end" font-size="12">21,426</text>
<line class="grid" x1="80.00" y1="70" x2="80.00" y2="470" />
<text x="80.00" y="492" text-anchor="middle" font-size="12">1000</text>
<line class="grid" x1="174.44" y1="70" x2="174.44" y2="470" />
<text x="174.44" y="492" text-anchor="middle" font-size="12">2000</text>
<line class="grid" x1="268.89" y1="70" x2="268.89" y2="470" />
<text x="268.89" y="492" text-anchor="middle" font-size="12">3000</text>
<line class="grid" x1="363.33" y1="70" x2="363.33" y2="470" />
<text x="363.33" y="492" text-anchor="middle" font-size="12">4000</text>
<line class="grid" x1="457.78" y1="70" x2="457.78" y2="470" />
<text x="457.78" y="492" text-anchor="middle" font-size="12">5000</text>
<line class="grid" x1="552.22" y1="70" x2="552.22" y2="470" />
<text x="552.22" y="492" text-anchor="middle" font-size="12">6000</text>
<line class="grid" x1="646.67" y1="70" x2="646.67" y2="470" />
<text x="646.67" y="492" text-anchor="middle" font-size="12">7000</text>
<line class="grid" x1="741.11" y1="70" x2="741.11" y2="470" />
<text x="741.11" y="492" text-anchor="middle" font-size="12">8000</text>
<line class="grid" x1="835.56" y1="70" x2="835.56" y2="470" />
<text x="835.56" y="492" text-anchor="middle" font-size="12">9000</text>
<line class="grid" x1="930.00" y1="70" x2="930.00" y2="470" />
<text x="930.00" y="492" text-anchor="middle" font-size="12">10000</text>
<line class="axis" x1="80" y1="470" x2="930" y2="470" />
<line class="axis" x1="80" y1="70" x2="80" y2="470" />
<text x="480.0" y="522" text-anchor="middle" font-size="14">batch_size</text>
<text x="24" y="270.0" text-anchor="middle" font-size="14" transform="rotate(-90 24 270.0)">throughput</text>
<path class="series" stroke="#1f77b4" d="M 80.00 192.85 L 174.44 298.51 L 268.89 337.11 L 363.33 372.25 L 457.78 402.08 L 552.22 417.79 L 646.67 427.47 L 741.11 434.11 L 835.56 438.86 L 930.00 442.41" />
<circle class="point" cx="80.00" cy="192.85" r="4" fill="#1f77b4" />
<circle class="point" cx="174.44" cy="298.51" r="4" fill="#1f77b4" />
<circle class="point" cx="268.89" cy="337.11" r="4" fill="#1f77b4" />
<circle class="point" cx="363.33" cy="372.25" r="4" fill="#1f77b4" />
<circle class="point" cx="457.78" cy="402.08" r="4" fill="#1f77b4" />
<circle class="point" cx="552.22" cy="417.79" r="4" fill="#1f77b4" />
<circle class="point" cx="646.67" cy="427.47" r="4" fill="#1f77b4" />
<circle class="point" cx="741.11" cy="434.11" r="4" fill="#1f77b4" />
<circle class="point" cx="835.56" cy="438.86" r="4" fill="#1f77b4" />
<circle class="point" cx="930.00" cy="442.41" r="4" fill="#1f77b4" />
<line x1="750" y1="80" x2="772" y2="80" stroke="#1f77b4" stroke-width="3" />
<text x="780" y="84" font-size="13">aria_abort_lock_fix</text>
<path class="series" stroke="#d62728" d="M 80.00 103.86 L 174.44 219.44 L 268.89 267.05 L 363.33 299.58 L 457.78 333.84 L 552.22 359.31 L 646.67 381.17 L 741.11 395.65 L 835.56 415.31 L 930.00 412.71" />
<circle class="point" cx="80.00" cy="103.86" r="4" fill="#d62728" />
<circle class="point" cx="174.44" cy="219.44" r="4" fill="#d62728" />
<circle class="point" cx="268.89" cy="267.05" r="4" fill="#d62728" />
<circle class="point" cx="363.33" cy="299.58" r="4" fill="#d62728" />
<circle class="point" cx="457.78" cy="333.84" r="4" fill="#d62728" />
<circle class="point" cx="552.22" cy="359.31" r="4" fill="#d62728" />
<circle class="point" cx="646.67" cy="381.17" r="4" fill="#d62728" />
<circle class="point" cx="741.11" cy="395.65" r="4" fill="#d62728" />
<circle class="point" cx="835.56" cy="415.31" r="4" fill="#d62728" />
<circle class="point" cx="930.00" cy="412.71" r="4" fill="#d62728" />
<line x1="750" y1="104" x2="772" y2="104" stroke="#d62728" stroke-width="3" />
<text x="780" y="108" font-size="13">ariaer_cache_fix_v2_abort_lock_fix</text>
</svg>