<svg xmlns="http://www.w3.org/2000/svg" width="960" height="540" viewBox="0 0 960 540">
<style>
svg { background: #fff; }
text { font-family: Arial, sans-serif; fill: #000; }
.axis { stroke: #333; stroke-width: 1.5; }
.grid { stroke: #ddd; stroke-width: 1; }
.series { fill: none; stroke-width: 2.5; }
.point { stroke: white; stroke-width: 1.5; }
</style>
<rect x="0" y="0" width="960" height="540" fill="#fff" />
<text x="480.0" y="32" text-anchor="middle" font-size="20" font-weight="bold">YCSB average commit: rw=80, ops=10, batch=4000, threads=12, partitions=12, keys=40000</text>
<line class="grid" x1="80" y1="470.00" x2="930" y2="470.00" />
<text x="70" y="474.00" text-anchor="end" font-size="12">0</text>
<line class="grid" x1="80" y1="390.00" x2="930" y2="390.00" />
<text x="70" y="394.00" text-anchor="end" font-size="12">156,503</text>
<line class="grid" x1="80" y1="310.00" x2="930" y2="310.00" />
<text x="70" y="314.00" text-anchor="end" font-size="12">313,005</text>
<line class="grid" x1="80" y1="230.00" x2="930" y2="230.00" />
<text x="70" y="234.00" text-anchor="end" font-size="12">469,508</text>
<line class="grid" x1="80" y1="150.00" x2="930" y2="150.00" />
<text x="70" y="154.00" text-anchor="end" font-size="12">626,010</text>
<line class="grid" x1="80" y1="70.00" x2="930" y2="70.00" />
<text x="70" y="74.00" text-anchor="end" font-size="12">782,513</text>
<line class="grid" x1="80.00" y1="70" x2="80.00" y2="470" />
<text x="80.00" y="492" text-anchor="middle" font-size="12">0.0</text>
<line class="grid" x1="268.89" y1="70" x2="268.89" y2="470" />
<text x="268.89" y="492" text-anchor="middle" font-size="12">0.2</text>
<line class="grid" x1="457.78" y1="70" x2="457.78" y2="470" />
<text x="457.78" y="492" text-anchor="middle" font-size="12">0.4</text>
<line class="grid" x1="646.67" y1="70" x2="646.67" y2="470" />
<text x="646.67" y="492" text-anchor="middle" font-size="12">0.6</text>
<line class="grid" x1="835.56" y1="70" x2="835.56" y2="470" />
<text x="835.56" y="492" text-anchor="middle" font-size="12">0.8</text>
<line class="grid" x1="930.00" y1="70" x2="930.00" y2="470" />
<text x="930.00" y="492" text-anchor="middle" font-size="12">0.9</text>
<line class="axis" x1="80" y1="470" x2="930" y2="470" />
<line class="axis" x1="80" y1="70" x2="80" y2="470" />
<text x="480.0" y="522" text-anchor="middle" font-size="14">zipf</text>
<text x="24" y="270.0" text-anchor="middle" font-size="14" transform="rotate(-90 24 270.0)">average commit</text>
<path class="series" stroke="#1f77b4" d="M 80.00 116.31 L 268.89 232.84 L 457.78 276.59 L 646.67 398.47 L 835.56 433.54 L 930.00 439.50" />
<circle class="point" cx="80.00" cy="116.31" r="4" fill="#1f77b4" />
<circle class="point" cx="268.89" cy="232.84" r="4" fill="#1f77b4" />
<circle class="point" cx="457.78" cy="276.59" r="4" fill="#1f77b4" />
<circle class="point" cx="646.67" cy="398.47" r="4" fill="#1f77b4" />
<circle class="point" cx="835.56" cy="433.54" r="4" fill="#1f77b4" />
<circle class="point" cx="930.00" cy="439.50" r="4" fill="#1f77b4" />
<line x1="750" y1="80" x2="772" y2="80" stroke="#1f77b4" stroke-width="3" />
<text x="780" y="84" font-size="13">aria_abort_lock_fix</text>
<path class="series" stroke="#d62728" d="M 80.00 119.25 L 268.89 232.21 L 457.78 271.44 L 646.67 386.62 L 835.56 423.24 L 930.00 430.92" />
<circle class="point" cx="80.00" cy="119.25" r="4" fill="#d62728" />
<circle class="point" cx="268.89" cy="232.21" r="4" fill="#d62728" />
<circle class="point" cx="457.78" cy="271.44" r="4" fill="#d62728" />
<circle class="point" cx="646.67" cy="386.62" r="4" fill="#d62728" />
<circle class="point" cx="835.56" cy="423.24" r="4" fill="#d62728" />
<circle class="point" cx="930.00" cy="430.92" r="4" fill="#d62728" />
<line x1="750" y1="104" x2="772" y2="104" stroke="#d62728" stroke-width="3" />
<text x="780" y="108" font-size="13">ariaer_abort_lock_fix</text>
<path class="series" stroke="#2ca02c" d="M 80.00 106.45 L 268.89 228.32 L 457.78 229.75 L 646.67 242.22 L 835.56 294.36 L 930.00 333.81" />
<circle class="point" cx="80.00" cy="106.45" r="4" fill="#2ca02c" />
<circle class="point" cx="268.89" cy="228.32" r="4" fill="#2ca02c" />
<circle class="point" cx="457.78" cy="229.75" r="4" fill="#2ca02c" />
<circle class="point" cx="646.67" cy="242.22" r="4" fill="#2ca02c" />
<circle class="point" cx="835.56" cy="294.36" r="4" fill="#2ca02c" />
<circle class="point" cx="930.00" cy="333.81" r="4" fill="#2ca02c" />
<line x1="750" y1="128" x2="772" y2="128" stroke="#2ca02c" stroke-width="3" />
<text x="780" y="132" font-size="13">ariaer_ariafb_abort_lock_fix</text>
<path class="series" stroke="#9467bd" d="M 80.00 113.52 L 268.89 233.56 L 457.78 268.89 L 646.67 387.84 L 835.56 423.49 L 930.00 430.89" />
<circle class="point" cx="80.00" cy="113.52" r="4" fill="#9467bd" />
<circle class="point" cx="268.89" cy="233.56" r="4" fill="#9467bd" />
<circle class="point" cx="457.78" cy="268.89" r="4" fill="#9467bd" />
<circle class="point" cx="646.67" cy="387.84" r="4" fill="#9467bd" />
<circle class="point" cx="835.56" cy="423.49" r="4" fill="#9467bd" />
<circle class="point" cx="930.00" cy="430.89" r="4" fill="#9467bd" />
<line x1="750" y1="152" x2="772" y2="152" stroke="#9467bd" stroke-width="3" />
<text x="780" y="156" font-size="13">ariaer_cache_fix_v2_abort_lock_fix</text>
<path class="series" stroke="#ff7f0e" d="M 80.00 109.72 L 268.89 228.32 L 457.78 228.93 L 646.67 241.40 L 835.56 294.56 L 930.00 333.77" />
<circle class="point" cx="80.00" cy="109.72" r="4" fill="#ff7f0e" />
<circle class="point" cx="268.89" cy="228.32" r="4" fill="#ff7f0e" />
<circle class="point" cx="457.78" cy="228.93" r="4" fill="#ff7f0e" />
<circle class="point" cx="646.67" cy="241.40" r="4" fill="#ff7f0e" />
<circle class="point" cx="835.56" cy="294.56" r="4" fill="#ff7f0e" />
<circle class="point" cx="930.00" cy="333.77" r="4" fill="#ff7f0e" />
<line x1="750" y1="176" x2="772" y2="176" stroke="#ff7f0e" stroke-width="3" />
<text x="780" y="180" font-size="13">ariaer_cache_fix_v2_ariafb_abort_lock_fix</text>
<path class="series" stroke="#8c564b" d="M 80.00 103.59 L 268.89 228.32 L 457.78 230.16 L 646.67 242.65 L 835.56 295.18 L 930.00 333.84" />
<circle class="point" cx="80.00" cy="103.59" r="4" fill="#8c564b" />
<circle class="point" cx="268.89" cy="228.32" r="4" fill="#8c564b" />
<circle class="point" cx="457.78" cy="230.16" r="4" fill="#8c564b" />
<circle class="point" cx="646.67" cy="242.65" r="4" fill="#8c564b" />
<circle class="point" cx="835.56" cy="295.18" r="4" fill="#8c564b" />
<circle class="point" cx="930.00" cy="333.84" r="4" fill="#8c564b" />
<line x1="750" y1="200" x2="772" y2="200" stroke="#8c564b" stroke-width="3" />
<text x="780" y="204" font-size="13">ariafb_abort_lock_fix</text>
</svg>