<svg xmlns="http://www.w3.org/2000/svg" width="960" height="540" viewBox="0 0 960 540">
<style>
svg { background: #fff; }
text { font-family: Arial, sans-serif; fill: #000; }
.axis { stroke: #333; stroke-width: 1.5; }
.grid { stroke: #ddd; stroke-width: 1; }
.series { fill: none; stroke-width: 2.5; }
.point { stroke: white; stroke-width: 1.5; }
</style>
<rect x="0" y="0" width="960" height="540" fill="#fff" />
<text x="480.0" y="32" text-anchor="middle" font-size="20" font-weight="bold">YCSB average commit: rw=80, ops=100, batch=4000, threads=12, partitions=12, keys=40000</text>
<line class="grid" x1="80" y1="470.00" x2="930" y2="470.00" />
<text x="70" y="474.00" text-anchor="end" font-size="12">0</text>
<line class="grid" x1="80" y1="390.00" x2="930" y2="390.00" />
<text x="70" y="394.00" text-anchor="end" font-size="12">2,608</text>
<line class="grid" x1="80" y1="310.00" x2="930" y2="310.00" />
<text x="70" y="314.00" text-anchor="end" font-size="12">5,216</text>
<line class="grid" x1="80" y1="230.00" x2="930" y2="230.00" />
<text x="70" y="234.00" text-anchor="end" font-size="12">7,824</text>
<line class="grid" x1="80" y1="150.00" x2="930" y2="150.00" />
<text x="70" y="154.00" text-anchor="end" font-size="12">10,432</text>
<line class="grid" x1="80" y1="70.00" x2="930" y2="70.00" />
<text x="70" y="74.00" text-anchor="end" font-size="12">13,040</text>
<line class="grid" x1="80.00" y1="70" x2="80.00" y2="470" />
<text x="80.00" y="492" text-anchor="middle" font-size="12">0.0</text>
<line class="grid" x1="268.89" y1="70" x2="268.89" y2="470" />
<text x="268.89" y="492" text-anchor="middle" font-size="12">0.2</text>
<line class="grid" x1="457.78" y1="70" x2="457.78" y2="470" />
<text x="457.78" y="492" text-anchor="middle" font-size="12">0.4</text>
<line class="grid" x1="646.67" y1="70" x2="646.67" y2="470" />
<text x="646.67" y="492" text-anchor="middle" font-size="12">0.6</text>
<line class="grid" x1="835.56" y1="70" x2="835.56" y2="470" />
<text x="835.56" y="492" text-anchor="middle" font-size="12">0.8</text>
<line class="grid" x1="930.00" y1="70" x2="930.00" y2="470" />
<text x="930.00" y="492" text-anchor="middle" font-size="12">0.9</text>
<line class="axis" x1="80" y1="470" x2="930" y2="470" />
<line class="axis" x1="80" y1="70" x2="80" y2="470" />
<text x="480.0" y="522" text-anchor="middle" font-size="14">zipf</text>
<text x="24" y="270.0" text-anchor="middle" font-size="14" transform="rotate(-90 24 270.0)">average commit</text>
<path class="series" stroke="#1f77b4" d="M 80.00 237.02 L 268.89 250.46 L 457.78 318.24 L 646.67 387.67 L 835.56 457.47 L 930.00 465.03" />
<circle class="point" cx="80.00" cy="237.02" r="4" fill="#1f77b4" />
<circle class="point" cx="268.89" cy="250.46" r="4" fill="#1f77b4" />
<circle class="point" cx="457.78" cy="318.24" r="4" fill="#1f77b4" />
<circle class="point" cx="646.67" cy="387.67" r="4" fill="#1f77b4" />
<circle class="point" cx="835.56" cy="457.47" r="4" fill="#1f77b4" />
<circle class="point" cx="930.00" cy="465.03" r="4" fill="#1f77b4" />
<line x1="750" y1="80" x2="772" y2="80" stroke="#1f77b4" stroke-width="3" />
<text x="780" y="84" font-size="13">aria_abort_lock_fix</text>
<path class="series" stroke="#d62728" d="M 80.00 107.01 L 268.89 125.67 L 457.78 236.01 L 646.67 341.85 L 835.56 423.85 L 930.00 449.83" />
<circle class="point" cx="80.00" cy="107.01" r="4" fill="#d62728" />
<circle class="point" cx="268.89" cy="125.67" r="4" fill="#d62728" />
<circle class="point" cx="457.78" cy="236.01" r="4" fill="#d62728" />
<circle class="point" cx="646.67" cy="341.85" r="4" fill="#d62728" />
<circle class="point" cx="835.56" cy="423.85" r="4" fill="#d62728" />
<circle class="point" cx="930.00" cy="449.83" r="4" fill="#d62728" />
<line x1="750" y1="104" x2="772" y2="104" stroke="#d62728" stroke-width="3" />
<text x="780" y="108" font-size="13">ariaer_abort_lock_fix</text>
<path class="series" stroke="#2ca02c" d="M 80.00 105.91 L 268.89 127.54 L 457.78 235.13 L 646.67 342.74 L 835.56 423.25 L 930.00 449.84" />
<circle class="point" cx="80.00" cy="105.91" r="4" fill="#2ca02c" />
<circle class="point" cx="268.89" cy="127.54" r="4" fill="#2ca02c" />
<circle class="point" cx="457.78" cy="235.13" r="4" fill="#2ca02c" />
<circle class="point" cx="646.67" cy="342.74" r="4" fill="#2ca02c" />
<circle class="point" cx="835.56" cy="423.25" r="4" fill="#2ca02c" />
<circle class="point" cx="930.00" cy="449.84" r="4" fill="#2ca02c" />
<line x1="750" y1="128" x2="772" y2="128" stroke="#2ca02c" stroke-width="3" />
<text x="780" y="132" font-size="13">ariaer_cache_fix_v2_abort_lock_fix</text>
</svg>