<svg xmlns="http://www.w3.org/2000/svg" width="960" height="540" viewBox="0 0 960 540">
<style>
svg { background: #fff; }
text { font-family: Arial, sans-serif; fill: #000; }
.axis { stroke: #333; stroke-width: 1.5; }
.grid { stroke: #ddd; stroke-width: 1; }
.series { fill: none; stroke-width: 2.5; }
.point { stroke: white; stroke-width: 1.5; }
</style>
<rect x="0" y="0" width="960" height="540" fill="#fff" />
<text x="480.0" y="32" text-anchor="middle" font-size="20" font-weight="bold">YCSB throughput: rw=95, ops=100, zipf=0.8, threads=12, partitions=12, keys=40000</text>
<line class="grid" x1="80" y1="470.00" x2="930" y2="470.00" />
<text x="70" y="474.00" text-anchor="end" font-size="12">4,269</text>
<line class="grid" x1="80" y1="390.00" x2="930" y2="390.00" />
<text x="70" y="394.00" text-anchor="end" font-size="12">11,238</text>
<line class="grid" x1="80" y1="310.00" x2="930" y2="310.00" />
<text x="70" y="314.00" text-anchor="end" font-size="12">18,207</text>
<line class="grid" x1="80" y1="230.00" x2="930" y2="230.00" />
<text x="70" y="234.00" text-anchor="end" font-size="12">25,176</text>
<line class="grid" x1="80" y1="150.00" x2="930" y2="150.00" />
<text x="70" y="154.00" text-anchor="end" font-size="12">32,145</text>
<line class="grid" x1="80" y1="70.00" x2="930" y2="70.00" />
<text x="70" y="74.00" text-anchor="end" font-size="12">39,113</text>
<line class="grid" x1="80.00" y1="70" x2="80.00" y2="470" />
<text x="80.00" y="492" text-anchor="middle" font-size="12">1000</text>
<line class="grid" x1="174.44" y1="70" x2="174.44" y2="470" />
<text x="174.44" y="492" text-anchor="middle" font-size="12">2000</text>
<line class="grid" x1="268.89" y1="70" x2="268.89" y2="470" />
<text x="268.89" y="492" text-anchor="middle" font-size="12">3000</text>
<line class="grid" x1="363.33" y1="70" x2="363.33" y2="470" />
<text x="363.33" y="492" text-anchor="middle" font-size="12">4000</text>
<line class="grid" x1="457.78" y1="70" x2="457.78" y2="470" />
<text x="457.78" y="492" text-anchor="middle" font-size="12">5000</text>
<line class="grid" x1="552.22" y1="70" x2="552.22" y2="470" />
<text x="552.22" y="492" text-anchor="middle" font-size="12">6000</text>
<line class="grid" x1="646.67" y1="70" x2="646.67" y2="470" />
<text x="646.67" y="492" text-anchor="middle" font-size="12">7000</text>
<line class="grid" x1="741.11" y1="70" x2="741.11" y2="470" />
<text x="741.11" y="492" text-anchor="middle" font-size="12">8000</text>
<line class="grid" x1="835.56" y1="70" x2="835.56" y2="470" />
<text x="835.56" y="492" text-anchor="middle" font-size="12">9000</text>
<line class="grid" x1="930.00" y1="70" x2="930.00" y2="470" />
<text x="930.00" y="492" text-anchor="middle" font-size="12">10000</text>
<line class="axis" x1="80" y1="470" x2="930" y2="470" />
<line class="axis" x1="80" y1="70" x2="80" y2="470" />
<text x="480.0" y="522" text-anchor="middle" font-size="14">batch_size</text>
<text x="24" y="270.0" text-anchor="middle" font-size="14" transform="rotate(-90 24 270.0)">throughput</text>
<path class="series" stroke="#1f77b4" d="M 80.00 192.87 L 174.44 300.12 L 268.89 345.84 L 363.33 373.36 L 457.78 392.00 L 552.22 404.84 L 646.67 416.42 L 741.11 424.37 L 835.56 431.45 L 930.00 436.67" />
<circle class="point" cx="80.00" cy="192.87" r="4" fill="#1f77b4" />
<circle class="point" cx="174.44" cy="300.12" r="4" fill="#1f77b4" />
<circle class="point" cx="268.89" cy="345.84" r="4" fill="#1f77b4" />
<circle class="point" cx="363.33" cy="373.36" r="4" fill="#1f77b4" />
<circle class="point" cx="457.78" cy="392.00" r="4" fill="#1f77b4" />
<circle class="point" cx="552.22" cy="404.84" r="4" fill="#1f77b4" />
<circle class="point" cx="646.67" cy="416.42" r="4" fill="#1f77b4" />
<circle class="point" cx="741.11" cy="424.37" r="4" fill="#1f77b4" />
<circle class="point" cx="835.56" cy="431.45" r="4" fill="#1f77b4" />
<circle class="point" cx="930.00" cy="436.67" r="4" fill="#1f77b4" />
<line x1="750" y1="80" x2="772" y2="80" stroke="#1f77b4" stroke-width="3" />
<text x="780" y="84" font-size="13">aria</text>
<path class="series" stroke="#d62728" d="M 80.00 103.33 L 174.44 205.27 L 268.89 251.79 L 363.33 282.77 L 457.78 304.45 L 552.22 320.17 L 646.67 332.75 L 741.11 342.34 L 835.56 352.99 L 930.00 359.37" />
<circle class="point" cx="80.00" cy="103.33" r="4" fill="#d62728" />
<circle class="point" cx="174.44" cy="205.27" r="4" fill="#d62728" />
<circle class="point" cx="268.89" cy="251.79" r="4" fill="#d62728" />
<circle class="point" cx="363.33" cy="282.77" r="4" fill="#d62728" />
<circle class="point" cx="457.78" cy="304.45" r="4" fill="#d62728" />
<circle class="point" cx="552.22" cy="320.17" r="4" fill="#d62728" />
<circle class="point" cx="646.67" cy="332.75" r="4" fill="#d62728" />
<circle class="point" cx="741.11" cy="342.34" r="4" fill="#d62728" />
<circle class="point" cx="835.56" cy="352.99" r="4" fill="#d62728" />
<circle class="point" cx="930.00" cy="359.37" r="4" fill="#d62728" />
<line x1="750" y1="104" x2="772" y2="104" stroke="#d62728" stroke-width="3" />
<text x="780" y="108" font-size="13">ariaer_cache_fix_v2</text>
</svg>