<svg xmlns="http://www.w3.org/2000/svg" width="960" height="540" viewBox="0 0 960 540">
<style>
svg { background: #fff; }
text { font-family: Arial, sans-serif; fill: #000; }
.axis { stroke: #333; stroke-width: 1.5; }
.grid { stroke: #ddd; stroke-width: 1; }
.series { fill: none; stroke-width: 2.5; }
.point { stroke: white; stroke-width: 1.5; }
</style>
<rect x="0" y="0" width="960" height="540" fill="#fff" />
<line class="grid" x1="80" y1="470.00" x2="930" y2="470.00" />
<text x="70" y="474.00" text-anchor="end" font-size="12">0</text>
<line class="grid" x1="80" y1="390.00" x2="930" y2="390.00" />
<text x="70" y="394.00" text-anchor="end" font-size="12">26,419</text>
<line class="grid" x1="80" y1="310.00" x2="930" y2="310.00" />
<text x="70" y="314.00" text-anchor="end" font-size="12">52,838</text>
<line class="grid" x1="80" y1="230.00" x2="930" y2="230.00" />
<text x="70" y="234.00" text-anchor="end" font-size="12">79,257</text>
<line class="grid" x1="80" y1="150.00" x2="930" y2="150.00" />
<text x="70" y="154.00" text-anchor="end" font-size="12">105,676</text>
<line class="grid" x1="80" y1="70.00" x2="930" y2="70.00" />
<text x="70" y="74.00" text-anchor="end" font-size="12">132,095</text>
<line class="grid" x1="80.00" y1="70" x2="80.00" y2="470" />
<text x="80.00" y="492" text-anchor="middle" font-size="12">1</text>
<line class="grid" x1="123.22" y1="70" x2="123.22" y2="470" />
<text x="123.22" y="492" text-anchor="middle" font-size="12">4</text>
<line class="grid" x1="180.85" y1="70" x2="180.85" y2="470" />
<text x="180.85" y="492" text-anchor="middle" font-size="12">8</text>
<line class="grid" x1="238.47" y1="70" x2="238.47" y2="470" />
<text x="238.47" y="492" text-anchor="middle" font-size="12">12</text>
<line class="grid" x1="296.10" y1="70" x2="296.10" y2="470" />
<text x="296.10" y="492" text-anchor="middle" font-size="12">16</text>
<line class="grid" x1="411.36" y1="70" x2="411.36" y2="470" />
<text x="411.36" y="492" text-anchor="middle" font-size="12">24</text>
<line class="grid" x1="641.86" y1="70" x2="641.86" y2="470" />
<text x="641.86" y="492" text-anchor="middle" font-size="12">40</text>
<line class="grid" x1="930.00" y1="70" x2="930.00" y2="470" />
<text x="930.00" y="492" text-anchor="middle" font-size="12">60</text>
<line class="axis" x1="80" y1="470" x2="930" y2="470" />
<line class="axis" x1="80" y1="70" x2="80" y2="470" />
<text x="480.0" y="522" text-anchor="middle" font-size="14">threads</text>
<text x="24" y="270.0" text-anchor="middle" font-size="14" transform="rotate(-90 24 270.0)">average commit</text>
<path class="series" stroke="#1f77b4" d="M 80.00 459.51 L 123.22 428.16 L 180.85 386.92 L 238.47 344.71 L 296.10 316.08 L 411.36 239.26 L 641.86 240.89 L 930.00 143.14" />
<circle class="point" cx="80.00" cy="459.51" r="4" fill="#1f77b4" />
<circle class="point" cx="123.22" cy="428.16" r="4" fill="#1f77b4" />
<circle class="point" cx="180.85" cy="386.92" r="4" fill="#1f77b4" />
<circle class="point" cx="238.47" cy="344.71" r="4" fill="#1f77b4" />
<circle class="point" cx="296.10" cy="316.08" r="4" fill="#1f77b4" />
<circle class="point" cx="411.36" cy="239.26" r="4" fill="#1f77b4" />
<circle class="point" cx="641.86" cy="240.89" r="4" fill="#1f77b4" />
<circle class="point" cx="930.00" cy="143.14" r="4" fill="#1f77b4" />
<line x1="750" y1="80" x2="772" y2="80" stroke="#1f77b4" stroke-width="3" />
<text x="780" y="84" font-size="13">Aria</text>
<path class="series" stroke="#d62728" d="M 80.00 458.03 L 123.22 421.89 L 180.85 373.83 L 238.47 325.64 L 296.10 291.34 L 411.36 206.42 L 641.86 215.28 L 930.00 105.41" />
<circle class="point" cx="80.00" cy="458.03" r="4" fill="#d62728" />
<circle class="point" cx="123.22" cy="421.89" r="4" fill="#d62728" />
<circle class="point" cx="180.85" cy="373.83" r="4" fill="#d62728" />
<circle class="point" cx="238.47" cy="325.64" r="4" fill="#d62728" />
<circle class="point" cx="296.10" cy="291.34" r="4" fill="#d62728" />
<circle class="point" cx="411.36" cy="206.42" r="4" fill="#d62728" />
<circle class="point" cx="641.86" cy="215.28" r="4" fill="#d62728" />
<circle class="point" cx="930.00" cy="105.41" r="4" fill="#d62728" />
<line x1="750" y1="104" x2="772" y2="104" stroke="#d62728" stroke-width="3" />
<text x="780" y="108" font-size="13">AriaER</text>
</svg>